<svg width="156" height="29" viewBox="0 0 156 29" fill="none" xmlns="http://www.w3.org/2000/svg">
<path d="M40.8146 23.3735C41.2531 22.6022 41.2646 21.8123 40.849 21.0037C40.8898 21.0411 40.9344 21.0353 40.9829 20.9862L41.7592 20.818C42.3022 20.8881 42.8478 20.8577 43.3959 20.7268C44.1913 20.534 44.7152 20.6602 45.4265 20.8425C45.5527 20.874 45.5719 21.0318 45.4571 21.0879L40.8146 23.3735Z" fill="#210F2D"/>
<path d="M40.849 21.0037C41.2646 21.8123 41.2531 22.6022 40.8146 23.3735L38.4513 24.5163L34.784 25.7222C34.7457 25.7362 34.7228 25.7712 34.7304 25.8063C34.7381 25.8449 34.7763 25.8694 34.8146 25.8659C35.689 25.8075 36.3748 25.9652 36.872 26.3391C36.0153 26.706 35.3257 26.8568 34.8031 26.7913C32.5213 26.9643 30.3326 26.9 28.237 26.5985L30.6424 25.8203C30.7151 25.7958 30.7189 25.7046 30.65 25.6731L30.1797 25.4557C30.5315 25.2898 30.7622 24.9989 30.8718 24.5829C33.4468 23.8724 35.1919 23.3314 36.1071 22.9598C37.7209 22.3055 39.3015 21.6534 40.849 21.0037Z" fill="#3D1745"/>
<path d="M38.1419 25.957L36.872 26.3391C36.3748 25.9652 35.689 25.8075 34.8146 25.8659C34.7763 25.8694 34.7381 25.8449 34.7304 25.8063C34.7228 25.7712 34.7457 25.7362 34.784 25.7222L38.4513 24.5163C39.8663 24.4579 41.2139 24.1166 42.4938 23.4926C42.5511 23.4646 42.6238 23.4821 42.6582 23.5347L42.7041 23.6118C42.7194 23.6364 42.7117 23.6679 42.6888 23.6854C41.256 24.6015 39.7404 25.3587 38.1419 25.957Z" fill="#210F2D"/>
<path d="M38.1419 25.957C38.741 26.3192 39.3641 26.5483 40.0117 26.6441C40.1991 26.6721 40.2335 26.907 40.0614 26.9806C35.438 28.9261 30.6769 29.5676 25.6634 28.2776C25.5793 28.2566 25.5487 28.1584 25.6099 28.0988L26.3785 27.3346C27.5079 27.4281 28.6399 27.5648 29.7744 27.7448C31.2531 27.9762 32.9292 27.6584 34.8031 26.7913C35.3257 26.8568 36.0153 26.706 36.872 26.3391L38.1419 25.957Z" fill="#050B29"/>
<path d="M28.237 26.5985C30.3326 26.9 32.5213 26.9643 34.8031 26.7913C32.9292 27.6584 31.2531 27.9762 29.7744 27.7448C28.6399 27.5648 27.5079 27.4281 26.3785 27.3346L24.7036 27.0857C24.6386 27.0752 24.5927 27.0226 24.5927 26.963C24.5965 26.9035 24.6463 26.8544 24.7113 26.8509L28.237 26.5985Z" fill="#210F2D"/>
<path d="M31.931 5.01866C29.1929 5.53981 26.6639 6.51317 24.3439 7.93873C23.8034 8.26824 23.2566 8.67605 22.7033 9.16214C21.9207 9.84922 21.4375 10.3201 21.254 10.5748C20.4331 11.7246 19.2437 13.8163 17.686 16.8497C17.5764 17.0577 17.3533 17.1453 17.0168 17.1126C17.0321 17.0168 16.9722 16.9431 16.8371 16.8917C16.7797 16.8707 16.7147 16.8742 16.6612 16.9022L14.0531 18.2834C13.9422 18.343 13.8083 18.2659 13.8122 18.1502L13.8236 17.9784L14.2749 17.5893C15.2768 16.7059 16.3246 15.8833 17.4183 15.1215C17.7319 14.9041 18.0455 14.4788 18.3591 13.8455C18.3616 13.8408 18.3642 13.8361 18.3667 13.8314L19.992 11.3355C20.4076 11.0645 20.7645 10.7466 21.0628 10.382C21.5319 9.80715 21.8442 9.45426 21.9997 9.32339C22.5325 8.87936 22.9379 8.45754 23.2158 8.05791C23.2923 7.95275 23.3917 7.8581 23.5064 7.78449C25.5179 6.50499 26.8487 5.96164 29.4033 5.17991C29.4798 5.15654 29.6021 5.07475 29.7704 4.93453C29.8851 4.83871 30.0317 4.79665 30.2102 4.80833C30.7991 4.84339 31.3727 4.9135 31.931 5.01866Z" fill="#C42E37"/>
<path d="M48.0882 11.2725C47.7211 11.5482 47.28 11.6581 46.765 11.602C46.7115 11.595 46.658 11.6265 46.6427 11.6721L46.6121 11.7667C46.593 11.8368 46.6388 11.9069 46.7153 11.921C47.3884 12.0425 47.8919 12.3253 48.2259 12.7693C48.3024 12.8674 48.3215 12.9971 48.2756 13.1128L47.8702 14.1505L46.8759 14.9322C46.5063 14.9275 46.1353 15.0046 45.7631 15.1635C45.6101 15.2266 45.4495 15.0969 45.4954 14.9497L45.8549 13.835C45.9046 13.6807 45.8396 13.516 45.6981 13.4248L43.1742 11.7948C43.0441 11.7106 42.9332 11.5985 42.8491 11.4723C42.0027 10.1846 41.0173 9.07568 39.893 8.14556C39.2353 7.60221 38.1033 6.92215 37.3614 6.08434C37.7515 6.20586 38.1173 6.36945 38.459 6.57511C40.213 7.62909 41.8535 8.81511 43.3807 10.1332C44.6159 11.2023 45.9696 11.3776 48.0882 11.2725Z" fill="#C42E37"/>
<path d="M49.3117 13.1339C48.9752 13.627 48.4948 13.9658 47.8702 14.1505L48.2756 13.1128C48.3215 12.9971 48.3024 12.8674 48.2259 12.7693C47.8919 12.3253 47.3884 12.0425 46.7153 11.921C46.6388 11.9069 46.593 11.8368 46.6121 11.7667L46.6427 11.6721C46.658 11.6265 46.7115 11.595 46.765 11.602C47.28 11.6581 47.7211 11.5482 48.0882 11.2725C48.7842 11.1089 49.1919 11.7293 49.3117 13.1339Z" fill="#A3343B"/>
<path d="M17.0168 17.1126L16.2596 17.8172L14.1066 19.8153C13.6502 20.4066 13.4756 21.11 13.5827 21.9256L11.7433 21.4033C11.6617 21.4454 11.6005 21.4313 11.5597 21.3612C11.6183 21.3472 11.6693 21.3227 11.7127 21.2876C11.7484 21.2596 11.7726 21.2128 11.7853 21.1474C12.0301 19.848 12.7095 18.7917 13.8236 17.9784L13.8122 18.1502C13.8083 18.2659 13.9422 18.343 14.0531 18.2834L16.6612 16.9022C16.7147 16.8742 16.7797 16.8707 16.8371 16.8917C16.9722 16.9431 17.0321 17.0168 17.0168 17.1126Z" fill="#6B1D43"/>
<path d="M16.9982 14.2838L14.4284 16.2924L13.4953 16.8463L11.8662 17.1583C11.7094 17.1863 11.6215 17.0005 11.7553 16.9199L13.9963 15.5598C14.1977 15.7748 14.3596 15.8145 14.4819 15.6789C15.3462 14.7091 16.185 14.244 16.9982 14.2838Z" fill="#210F2D"/>
<path d="M28.4949 2.70507C31.5899 2.27039 34.5162 2.61125 37.2594 3.72599L32.4341 3.35037C30.4277 3.27559 28.3402 3.50837 26.1833 4.0342C25.5348 4.08386 24.9061 4.28656 24.2956 4.64097C24.1949 4.70351 24.1875 4.83694 24.286 4.90102C24.416 4.98515 24.4576 5.09266 24.4015 5.21886C24.375 5.28112 24.3247 5.33517 24.2571 5.36333C23.2934 5.76295 22.5146 6.33717 21.9359 7.08734L19.8652 8.85951C19.7466 8.96114 19.8202 9.13873 19.9807 9.13882H20.5105C20.7131 9.13882 20.7653 9.39005 20.5779 9.45666C20.0283 9.6554 19.7084 10.0017 19.6244 10.4872C18.4683 11.5686 17.5944 12.836 16.9982 14.2838C16.185 14.244 15.3462 14.7091 14.4819 15.6789C14.3596 15.8145 14.1977 15.7748 13.9963 15.5598L16.5809 12.8951C16.6683 12.8043 16.7153 12.6861 16.7157 12.5676C16.731 10.7377 18.1553 9.33086 19.5473 8.04085C19.6732 7.92535 19.787 7.79549 19.8748 7.65559C20.3515 6.8914 21.043 6.19657 21.9455 5.56558C22.0207 5.51367 22.0407 5.41103 21.9937 5.33443L21.9455 5.24775C21.9191 5.20615 21.8659 5.19543 21.8203 5.21886L19.4125 6.4902C19.3862 6.50225 19.3502 6.49458 19.3354 6.47093L19.2873 6.39388L19.2969 6.35536C20.5244 5.39177 21.7491 4.68468 22.9665 4.23646C24.0981 3.82087 25.6035 3.44877 27.4836 3.12885C27.5443 3.11838 27.6038 3.10842 27.6569 3.08069L28.1385 2.82065C28.2475 2.76287 28.3675 2.72244 28.4949 2.70507Z" fill="#3D1745"/>
<path d="M39.5806 4.74692C41.1698 5.55249 42.5763 6.59838 43.7991 7.88674V7.90601L43.7798 7.91564L41.2275 6.26867C41.1788 6.23773 41.1119 6.24166 41.0734 6.27831C41.036 6.31944 41.0282 6.3809 41.0638 6.42278C41.3876 6.78034 41.6462 7.19025 41.8247 7.64596L39.9947 6.4613C39.919 6.41274 39.856 6.33867 39.8214 6.25904C39.6201 5.79676 39.54 5.29085 39.5806 4.74692Z" fill="#3D1745"/>
<path d="M33.7017 6.07033C35.6138 6.80414 36.9816 7.43513 37.805 7.96329C39.271 8.90042 40.3889 10.2535 41.1588 12.0226C41.4036 12.7541 41.6177 13.4096 41.8013 13.9892C42.046 14.7628 41.7771 15.2827 40.9944 15.5491C40.77 11.5552 38.6999 8.98221 34.784 7.83008C32.7801 7.24583 30.8655 7.2657 29.0401 7.88967C24.3848 9.48116 22.1808 12.5823 22.4281 17.1932C22.5403 19.2965 23.7168 20.5223 25.9578 20.8705L25.1279 21.1474C25.0132 21.1895 24.8832 21.1895 24.7685 21.1474C23.6212 20.7373 22.3134 20.4428 22.0571 19.3316C21.611 17.3708 21.6607 15.4533 22.2063 13.5791C22.293 13.2776 22.6231 12.6665 23.1967 11.7457C23.5078 11.2479 23.9667 10.7198 24.5734 10.1612C25.6187 9.19605 26.6079 8.12804 27.541 6.95721C29.2772 6.16497 31.3307 5.86935 33.7017 6.07033Z" fill="#FEC53B"/>
<path d="M27.541 6.95721C26.6079 8.12804 25.6187 9.19605 24.5734 10.1612C23.9667 10.7198 23.5078 11.2479 23.1967 11.7457C22.6231 12.6665 22.293 13.2776 22.2063 13.5791C21.6607 15.4533 21.611 17.3708 22.0571 19.3316C22.3134 20.4428 23.6212 20.7373 24.7685 21.1474C24.8832 21.1895 25.0132 21.1895 25.1279 21.1474L25.9578 20.8705C31.2683 20.7326 36.0011 19.2299 40.1567 16.3625L40.9944 15.5491C41.7771 15.2827 42.046 14.7628 41.8013 13.9892C41.6177 13.4096 41.4036 12.7541 41.1588 12.0226C42.0486 12.5812 42.7265 13.3185 43.1931 14.2346C43.2543 14.3538 43.2428 14.494 43.1663 14.6062L40.8603 18.017L37.8354 19.6015C34.5008 20.6181 32.3388 21.2234 31.3497 21.4174C28.0966 22.0554 25.0806 21.7516 22.3017 20.5059C20.7134 19.7932 19.9728 18.4798 20.0798 16.5658C20.5642 14.57 20.9148 13.3244 21.1315 12.8289C22.3195 10.0947 24.4562 8.13739 27.541 6.95721Z" fill="#FFAE0E"/>
<path d="M37.2543 3.72866L39.5794 4.74524C39.5386 5.28976 39.6189 5.79338 39.8203 6.25611C39.8548 6.33673 39.9159 6.41035 39.9924 6.45942L41.8204 7.64428C42.7994 8.88755 43.9224 9.56996 45.1895 9.69148C47.5961 9.92284 49.911 9.6611 52.1341 8.90625C52.2106 8.88171 52.2948 8.91326 52.333 8.97987C52.3674 9.04647 52.3368 9.1271 52.268 9.16566L50.8416 9.91934C50.7574 9.9614 50.7269 10.056 50.7651 10.1367C50.8033 10.2173 50.8989 10.2559 50.9907 10.2313C51.6306 10.0467 52.2157 9.69849 52.746 9.18669C52.7957 9.13761 52.8722 9.1271 52.9372 9.15865C53.0264 9.20539 53.0532 9.29185 53.0175 9.41805C52.0054 10.7712 50.7702 12.0098 49.3119 13.1339C49.1921 11.7293 48.7842 11.1089 48.0882 11.2725C45.9696 11.3776 44.6158 11.2023 43.3806 10.1332C41.8535 8.81511 40.213 7.62909 38.4589 6.57511C38.1173 6.36945 37.7515 6.20586 37.3614 6.08434C37.239 5.96983 37.1778 5.94295 37.1778 6.00371C37.2365 5.74898 37.2378 5.53748 37.1817 5.36922C37.1511 5.27457 37.0822 5.19044 36.9943 5.13085C35.6915 4.2872 34.1708 3.69477 32.4321 3.35357L37.2543 3.72866Z" fill="#6B1D43"/>
<path d="M32.4321 3.35357C34.1708 3.69477 35.6915 4.2872 36.9943 5.13085C37.0822 5.19044 37.1511 5.27457 37.1817 5.36922C37.2378 5.53748 37.2365 5.74898 37.1778 6.00371C35.5029 5.37273 33.754 5.04434 31.9312 5.01864C31.3728 4.91347 30.7992 4.84336 30.2103 4.80831C30.0318 4.79662 29.8852 4.83869 29.7705 4.9345C29.6022 5.07472 29.4799 5.15652 29.4034 5.17989C26.8489 5.96161 25.518 6.50496 23.5065 7.78446C23.3918 7.85808 23.2924 7.95272 23.2159 8.05789C22.938 8.45751 22.5326 8.87934 21.9998 9.32337C21.8443 9.45424 21.532 9.80712 21.0629 10.382C20.7646 10.7466 20.4077 11.0644 19.9921 11.3355C20.0635 11.0808 19.9424 10.798 19.6288 10.4872C19.713 10.0011 20.0304 9.65873 20.5811 9.46008C20.7684 9.39348 20.7149 9.13758 20.5122 9.13758H19.9807C19.82 9.13758 19.7436 8.9588 19.8621 8.85714L21.9386 7.08336L25.9196 5.01162C26.0267 4.95554 26.0955 4.85738 26.107 4.74521L26.1873 4.03009C28.3441 3.50427 30.4256 3.27878 32.4321 3.35357Z" fill="#A3343B"/>
<path d="M26.1873 4.03009L26.107 4.74521C26.0955 4.85738 26.0267 4.95554 25.9196 5.01162L21.9386 7.08336C22.5174 6.33319 23.2887 5.75836 24.2524 5.35874C24.3212 5.3307 24.3748 5.28162 24.4016 5.21852C24.4576 5.09232 24.4207 4.98716 24.2907 4.90303C24.1874 4.83993 24.1912 4.69971 24.2945 4.63661C24.9063 4.28139 25.5372 4.07917 26.1873 4.03009Z" fill="#6B1D43"/>
<path d="M53.0175 9.41805L53.6064 9.56173C53.7288 9.58977 53.7938 9.71597 53.7365 9.82113L53.0711 11.034C52.9601 11.2409 53.1399 11.4827 53.3923 11.4582C53.4407 11.4535 53.4968 11.4442 53.5605 11.4301C52.7192 12.213 51.8958 12.8335 51.0901 13.2916C50.3712 13.7005 49.8486 14.0289 49.5222 14.2766L43.7516 17.4736C43.6063 17.5542 43.4418 17.393 43.5451 17.2668C43.7159 17.0588 43.9593 16.8707 44.2755 16.7024C45.2213 16.1999 46.0881 15.6099 46.8759 14.9321L47.8702 14.1504C48.4948 13.9658 48.9754 13.627 49.3119 13.1339C50.7702 12.0098 52.0054 10.7712 53.0175 9.41805Z" fill="#3D1745"/>
<path d="M19.9921 11.3355L18.3667 13.8314L18.359 13.8455C18.0455 14.4788 17.7319 14.9041 17.4183 15.1215C16.3246 15.8833 15.2768 16.7059 14.2748 17.5893L14.4278 16.2923L16.9976 14.2836C17.5942 12.8347 18.4714 11.5692 19.6288 10.4872C19.9424 10.798 20.0635 11.0808 19.9921 11.3355Z" fill="#6B1D43"/>
<path d="M14.4278 16.2923L14.2748 17.5893L13.8238 17.9784C12.7097 18.7917 12.0303 19.848 11.7855 21.1474C11.7728 21.2128 11.7485 21.2595 11.7128 21.2876C11.6695 21.3226 11.6185 21.3472 11.5599 21.3612L10.3859 20.9861C10.906 20.0303 11.5803 19.1971 12.4088 18.4867C12.4624 18.4411 12.47 18.3605 12.428 18.3044C12.3821 18.2518 12.2979 18.2343 12.2329 18.2694L10.6268 19.1177C10.5771 19.1457 10.5121 19.1282 10.4815 19.0826L10.4203 18.9845C10.3744 18.9074 10.3973 18.8127 10.4776 18.7601L13.4949 16.8461L14.4278 16.2923Z" fill="#3D1745"/>
<path d="M34.7839 7.83006L31.9081 8.44702C31.7857 8.47507 31.7934 8.63281 31.9158 8.65385C35.8891 9.28133 38.3442 12.1733 38.3442 15.8716C38.3442 15.9873 38.4207 16.089 38.5354 16.131C38.8796 16.2619 39.2594 16.2561 39.675 16.1135C39.8509 16.0528 40.0115 16.1357 40.1568 16.3624C36.0012 19.2299 31.2682 20.7326 25.9577 20.8705C23.7168 20.5222 22.5402 19.2965 22.428 17.1932C22.1807 12.5823 24.3847 9.48114 29.04 7.88965C30.8654 7.26568 32.78 7.24581 34.7839 7.83006Z" fill="#030914"/>
<path d="M40.9942 15.5492L40.1568 16.3624C40.0115 16.1357 39.8509 16.0528 39.675 16.1135C39.2594 16.2561 38.8796 16.2619 38.5354 16.131C38.4207 16.089 38.3442 15.9873 38.3442 15.8716C38.3442 12.1733 35.8891 9.28133 31.9158 8.65385C31.7934 8.63281 31.7857 8.47507 31.9081 8.44702L34.7839 7.83006C38.6998 8.98219 40.7698 11.5553 40.9942 15.5492Z" fill="#210F2D"/>
<path d="M40.86 18.0169L43.166 14.6061C43.2425 14.4939 43.254 14.3537 43.1928 14.2345C42.7262 13.3184 42.0481 12.5811 41.1583 12.0225C40.3884 10.2534 39.2705 8.90033 37.8045 7.9632C36.9811 7.43504 35.6133 6.80405 33.7012 6.07024C36.3399 6.11931 38.5923 7.25275 40.4585 9.47055C42.2151 11.5575 43.1278 12.6477 43.1966 12.7412C43.5561 13.2273 43.8072 13.6701 43.95 14.0697C44.0532 14.3607 44.015 14.6797 43.8429 14.9426C42.9047 16.3845 41.9104 17.4093 40.86 18.0169Z" fill="#FF8712"/>
<path d="M20.0798 16.5656C19.9727 18.4796 20.7133 19.793 22.3016 20.5058C25.0805 21.7514 28.0965 22.0552 31.3496 21.4172C32.3387 21.2233 34.5007 20.618 37.8353 19.6014C34.6103 21.5972 31.0245 22.6196 27.078 22.6687C26.9671 22.6687 26.86 22.6371 26.772 22.581L26.2481 22.2445C26.164 22.1884 26.0607 22.1569 25.9575 22.1499C23.8657 22.0412 21.1849 21.7748 20.0568 20.1062C19.3736 19.0943 19.3812 17.9141 20.0798 16.5656Z" fill="#FF8712"/>
<path d="M13.7436 4.15993C12.2242 4.51048 11.0744 4.36676 10.2943 3.72876C9.49118 3.07207 9.24261 2.1104 9.54854 0.843748C10.8335 -0.214907 12.7991 -0.015095 13.7436 1.26791C14.3746 2.12675 14.3746 3.26954 13.7436 4.15993Z" fill="#FFFFFA"/>
<path d="M9.54854 0.843748C9.24261 2.1104 9.49118 3.07207 10.2943 3.72876C11.0744 4.36676 12.2242 4.51048 13.7436 4.15993C13.0897 5.08538 11.8925 5.54808 10.7414 5.32373C9.82104 4.76753 9.10082 3.99515 8.58074 3.00661C8.5272 2.19333 8.88314 1.39411 9.54854 0.843748Z" fill="#7C8B9E"/>
<path d="M10.7414 5.32373C10.3399 5.24661 9.96907 5.08539 9.64784 4.85754C9.02068 4.41234 8.63045 3.73925 8.58074 3.00661C9.10082 3.99515 9.82104 4.76753 10.7414 5.32373Z" fill="#FFFFFA"/>
<path d="M16.2598 17.8173C16.191 18.2122 15.982 18.5674 15.6327 18.8829C15.5333 18.9741 15.4721 19.0933 15.4606 19.2195C15.3612 20.2431 15.6862 20.7338 16.6461 21.449C17.0107 21.7247 17.3536 22.039 17.6748 22.3919C15.6097 22.2564 14.4204 21.3975 14.1068 19.8154L16.2598 17.8173Z" fill="#C42E37"/>
<path d="M14.1068 19.8154C14.4204 21.3975 15.6097 22.2564 17.6748 22.3919C17.9705 22.4106 18.1835 22.497 18.3135 22.6513C18.3785 22.7284 18.3288 22.8406 18.2217 22.8546C18.0917 22.8686 17.94 22.8511 17.7667 22.802L14.6806 22.2166L13.583 21.9256C13.4759 21.11 13.6505 20.4067 14.1068 19.8154Z" fill="#812940"/>
<path d="M46.9065 18.8584L51.8435 15.8157L53.4497 14.6694C53.5415 14.6028 53.5721 14.4871 53.5224 14.3889L53.0252 13.3934C54.6925 11.4864 55.4765 10.5434 55.8627 8.15969C55.8742 8.08958 55.8245 8.02298 55.748 8.01246C55.6754 7.99844 55.595 8.04401 55.5836 8.11062C55.5428 8.34665 55.414 8.53478 55.1973 8.675C55.4931 5.84724 54.3025 3.8129 51.6256 2.57195C50.1443 1.88488 48.9792 1.61496 48.1303 1.76219L48.1112 1.74817C48.1163 1.71311 48.0984 1.69091 48.0576 1.68156L48.0461 1.66754L48.0614 1.65352C48.9435 1.61379 49.4624 1.60444 49.6179 1.62548C52.3024 1.98303 56.1342 3.33264 57.3771 5.58316C58.7959 8.15619 57.3389 11.241 55.3082 13.3128C52.9704 15.6988 50.1698 17.5474 46.9065 18.8584Z" fill="#062772"/>
<path d="M37.1781 6.00376C37.1781 5.94299 37.2392 5.96987 37.3616 6.08438C38.1035 6.92219 39.2355 7.60226 39.8932 8.14561C41.0175 9.07573 42.0029 10.1846 42.8493 11.4723C42.9334 11.5985 43.0443 11.7107 43.1743 11.7948L45.6983 13.4249C45.8398 13.516 45.9048 13.6808 45.8551 13.835L45.4956 14.9497C45.4497 15.097 45.6103 15.2267 45.7633 15.1636C46.1355 15.0047 46.5065 14.9275 46.8761 14.9322C46.0884 15.6099 45.2215 16.2 44.2757 16.7025C43.9596 16.8708 43.7161 17.0589 43.5453 17.2669C43.442 17.3931 43.6065 17.5543 43.7518 17.4737L49.5225 14.2767L49.01 16.1241L45.6677 17.9259C45.1859 18.0614 44.4784 18.3617 43.5453 18.8268C42.1737 19.5092 39.9557 20.3213 36.8912 21.2631C36.0984 21.5062 34.9409 21.7971 33.4189 22.136C32.2436 22.3954 31.0874 22.6957 29.9504 23.0369C26.2996 23.9857 22.5838 24.4017 18.803 24.2848C18.4027 24.3526 18.0063 24.2907 17.6136 24.0991L17.7667 22.802C17.94 22.8511 18.0917 22.8686 18.2217 22.8546C18.3288 22.8406 18.3785 22.7284 18.3135 22.6513C18.1835 22.497 17.9705 22.4106 17.6748 22.3919C17.3536 22.039 17.0107 21.7247 16.6461 21.449C15.6862 20.7338 15.3612 20.2431 15.4606 19.2195C15.4721 19.0933 15.5333 18.9741 15.6327 18.8829C15.982 18.5674 16.191 18.2122 16.2598 17.8173L17.0171 17.1126C17.3536 17.1453 17.5767 17.0577 17.6863 16.8497C19.244 13.8163 20.4333 11.7247 21.2542 10.5749C21.4378 10.3202 21.9209 9.84927 22.7036 9.1622C23.2568 8.6761 23.8037 8.2683 24.3442 7.93878C26.6642 6.51322 29.1932 5.53987 31.9313 5.01872C33.7542 5.04442 35.5031 5.37277 37.1781 6.00376ZM27.5412 6.95725C24.4563 8.13743 22.3199 10.0947 21.1319 12.8289C20.9152 13.3244 20.5646 14.57 20.0802 16.5658C19.3817 17.9142 19.374 19.0944 20.0573 20.1063C21.1854 21.7749 23.8661 22.0413 25.958 22.15C26.0612 22.157 26.1645 22.1886 26.2486 22.2447L26.7725 22.5812C26.8605 22.6373 26.9675 22.6688 27.0784 22.6688C31.025 22.6197 34.6108 21.5973 37.8358 19.6015L40.8607 18.017C41.9111 17.4094 42.9054 16.3847 43.8436 14.9427C44.0157 14.6798 44.0539 14.3608 43.9506 14.0699C43.8079 13.6702 43.5568 13.2274 43.1973 12.7413C43.1285 12.6478 42.2158 11.5576 40.4592 9.47068C38.593 7.25288 36.3406 6.11944 33.7019 6.07036C31.3309 5.86938 29.2773 6.16501 27.5412 6.95725ZM18.6615 17.1302L16.8029 18.8338C16.4817 19.1283 16.4855 19.6015 16.8067 19.8925C17.1407 20.1893 17.5818 20.4358 18.1299 20.6321C18.2179 20.6637 18.2982 20.5725 18.2446 20.5024C17.6481 19.6997 18.0802 18.918 18.3364 18.1117C18.3708 18.01 18.4244 17.9154 18.497 17.8348C18.6449 17.6665 18.7507 17.4573 18.8144 17.2073C18.8335 17.1267 18.7265 17.0706 18.6615 17.1302Z" fill="#E95328"/>
<path d="M53.0252 13.3934L51.335 14.5922L49.01 16.1241L49.5225 14.2767C49.8488 14.029 50.3714 13.7006 51.0903 13.2916C51.8959 12.8336 52.7194 12.2131 53.5607 11.4302C54.4352 10.5258 54.9806 9.60746 55.1973 8.675C55.414 8.53478 55.5428 8.34665 55.5836 8.11062C55.595 8.04401 55.6754 7.99844 55.748 8.01246C55.8245 8.02298 55.8742 8.08958 55.8627 8.15969C55.4765 10.5434 54.6925 11.4864 53.0252 13.3934Z" fill="#A3343B"/>
<path d="M53.0252 13.3934L53.5224 14.3889C53.5721 14.4871 53.5415 14.6028 53.4497 14.6694L51.8435 15.8157L51.335 14.5922L53.0252 13.3934Z" fill="#3D1745"/>
<path d="M51.335 14.5922L51.8435 15.8157L46.9065 18.8584L41.7593 20.818L40.983 20.9863L45.6677 17.9259L49.01 16.1241L51.335 14.5922Z" fill="#6B1D43"/>
<path d="M45.6677 17.9259L40.983 20.9863C40.9346 21.0353 40.8898 21.0411 40.8491 21.0037C39.3015 21.6534 37.7209 22.3054 36.1071 22.9598C35.1918 23.3314 33.4468 23.8724 30.8718 24.5828C30.0738 24.7464 29.2873 24.8609 28.5123 24.9264C27.2618 25.035 26.2561 25.4627 25.0209 25.2559C24.9482 25.2454 24.8985 25.1858 24.8985 25.1192C24.8985 25.0526 24.952 24.9965 25.0247 24.9859L29.954 24.2849C30.1146 24.2603 30.1988 24.0991 30.1146 23.9729C29.9489 23.7181 29.8943 23.4061 29.9504 23.0369C31.0874 22.6957 32.2436 22.3954 33.4189 22.136C34.9409 21.7971 36.0984 21.5062 36.8912 21.2631C39.9557 20.3213 42.1737 19.5092 43.5453 18.8268C44.4784 18.3617 45.1859 18.0614 45.6677 17.9259Z" fill="#C42E37"/>
<path d="M28.4091 1.23637L28.4359 1.26792V1.36607C28.4359 1.39061 28.413 1.41164 28.3862 1.40814C23.9425 1.13237 19.5332 1.28311 15.1584 1.86035C15.0284 1.87787 14.9137 1.78673 14.9137 1.66755V1.63249C14.9137 1.48526 15.0322 1.36607 15.1928 1.34855C19.1368 0.918541 22.0738 0.757288 24.0037 0.86479C25.3651 0.939573 26.8336 1.06343 28.4091 1.23637Z" fill="#4187D2"/>
<path d="M9.80447 20.7339L9.11995 22.7004C5.10458 21.3754 0.970658 18.5535 0.194353 14.5046C-0.704325 9.83883 3.51755 5.97578 7.78532 4.04426C7.90769 3.98817 8.03771 4.10736 7.97652 4.21954L7.79679 4.54905C7.75472 4.61916 7.69736 4.68226 7.6247 4.72783C3.99175 7.02042 0.897999 10.3506 2.20586 14.6273C2.97452 17.1443 5.81587 19.251 8.39336 20.2151C8.9058 20.4043 9.37617 20.5773 9.80447 20.7339Z" fill="#4187D2"/>
<path d="M10.3859 20.9862L11.5599 21.3613C11.6007 21.4314 11.6619 21.4454 11.7434 21.4034C11.1392 22.0671 10.8511 22.6875 10.8792 23.2648L9.11995 22.7004L9.80447 20.7339L10.3859 20.9862Z" fill="#7C8B9E"/>
<path d="M13.583 21.9256L14.6806 22.2166C13.9234 22.9528 13.7447 23.5219 14.1449 23.9238L10.8792 23.2648C10.8511 22.6875 11.1392 22.0671 11.7434 21.4034L13.583 21.9256Z" fill="#AD6990"/>
<path d="M17.7667 22.802L17.6136 24.0991L14.1449 23.9238C13.7447 23.5219 13.9234 22.9528 14.6806 22.2166L17.7667 22.802Z" fill="#CE5A62"/>
<path d="M29.9504 23.0369C29.8943 23.4061 29.9489 23.7181 30.1146 23.9729C30.1988 24.0991 30.1146 24.2603 29.954 24.2849L25.0247 24.9859C24.952 24.9965 24.8985 25.0526 24.8985 25.1192C24.8985 25.1858 24.9482 25.2454 25.0209 25.2559C26.2561 25.4627 27.2618 25.035 28.5123 24.9264C29.2873 24.8609 30.0738 24.7464 30.8718 24.5828C30.7622 24.9988 30.5316 25.2898 30.1798 25.4558C29.4685 25.5469 28.9369 25.6836 28.1721 25.6205C27.5832 25.5714 26.8451 25.631 25.9579 25.7993C25.2823 25.9278 23.5512 26.0049 20.7647 26.0306C20.5888 26.033 20.316 25.9804 19.9463 25.8729C19.8699 25.8484 19.7934 25.8378 19.7131 25.8343L16.4052 25.7572C15.857 25.4137 15.5855 25.0748 15.5906 24.7406L17.2962 24.7196C17.4262 24.7161 17.5562 24.7441 17.6748 24.7932C18.2612 25.0503 18.938 25.1928 19.7054 25.2209C19.7513 25.2209 19.7934 25.1928 19.801 25.1508C19.8087 25.1087 19.7819 25.0666 19.736 25.0561C19.1547 24.8995 18.8437 24.6424 18.803 24.2848C22.5838 24.4017 26.2996 23.9857 29.9504 23.0369Z" fill="#812940"/>
<path d="M15.5906 24.7406C15.5855 25.0748 15.857 25.4137 16.4052 25.7572C13.7257 25.5726 11.1621 24.9825 8.71468 23.9869C8.66879 23.9694 8.64967 23.9203 8.66879 23.8782C8.68791 23.8362 8.73762 23.8116 8.78734 23.8256C10.3654 24.2603 11.4043 24.4917 11.904 24.5197C13.1405 24.5922 14.3694 24.6658 15.5906 24.7406Z" fill="#3D1745"/>
<path d="M18.8144 17.2073C18.7507 17.4573 18.6449 17.6665 18.497 17.8348C18.4244 17.9154 18.3708 18.01 18.3364 18.1117C18.0802 18.918 17.6481 19.6997 18.2446 20.5024C18.2982 20.5725 18.2179 20.6637 18.1299 20.6321C17.5818 20.4358 17.1407 20.1893 16.8067 19.8925C16.4855 19.6015 16.4817 19.1283 16.8029 18.8338L18.6615 17.1302C18.7265 17.0706 18.8335 17.1267 18.8144 17.2073Z" fill="#812940"/>
<path d="M58.6931 20.0557V8.41936H67.0794V10.9648H61.8521V12.9648H66.6476V15.5103H61.8521V17.5103H67.0567V20.0557H58.6931ZM68.6462 20.0557V8.41936H73.6689C74.5325 8.41936 75.2882 8.57656 75.936 8.89095C76.5837 9.20535 77.0875 9.658 77.4473 10.2489C77.8072 10.8398 77.9871 11.5481 77.9871 12.3739C77.9871 13.2072 77.8015 13.9099 77.4303 14.4819C77.0628 15.0538 76.5458 15.4856 75.8791 15.7773C75.2163 16.069 74.4416 16.2148 73.5553 16.2148H70.5553V13.7603H72.9189C73.2901 13.7603 73.6064 13.7148 73.8678 13.6239C74.1329 13.5292 74.3356 13.3796 74.4757 13.175C74.6197 12.9705 74.6916 12.7035 74.6916 12.3739C74.6916 12.0406 74.6197 11.7697 74.4757 11.5614C74.3356 11.3493 74.1329 11.194 73.8678 11.0955C73.6064 10.9932 73.2901 10.9421 72.9189 10.9421H71.8053V20.0557H68.6462ZM75.4644 14.7148L78.3735 20.0557H74.9416L72.1007 14.7148H75.4644ZM86.8905 12.2603C86.8413 12.0595 86.7636 11.8834 86.6575 11.7319C86.5515 11.5766 86.4189 11.4459 86.2598 11.3398C86.1045 11.23 85.9227 11.1485 85.7144 11.0955C85.5098 11.0387 85.2844 11.0103 85.0382 11.0103C84.5079 11.0103 84.0553 11.1372 83.6803 11.391C83.3091 11.6447 83.025 12.0103 82.828 12.4875C82.6348 12.9648 82.5382 13.5406 82.5382 14.2148C82.5382 14.8966 82.631 15.48 82.8166 15.9648C83.0022 16.4497 83.2788 16.8209 83.6462 17.0785C84.0136 17.336 84.47 17.4648 85.0155 17.4648C85.4966 17.4648 85.8962 17.3947 86.2144 17.2546C86.5363 17.1144 86.7769 16.9156 86.936 16.658C87.095 16.4004 87.1746 16.0974 87.1746 15.7489L87.72 15.8057H85.061V13.5557H90.22V15.1694C90.22 16.23 89.9947 17.1372 89.5439 17.891C89.0969 18.641 88.4795 19.2167 87.6916 19.6182C86.9075 20.016 86.0079 20.2148 84.9928 20.2148C83.8602 20.2148 82.8659 19.9743 82.0098 19.4932C81.1538 19.0122 80.4852 18.3266 80.0041 17.4364C79.5269 16.5463 79.2882 15.4875 79.2882 14.2603C79.2882 13.2981 79.4341 12.4459 79.7257 11.7035C80.0212 10.961 80.4303 10.3341 80.953 9.82277C81.4757 9.30762 82.0799 8.91936 82.7655 8.658C83.4511 8.39285 84.186 8.26027 84.97 8.26027C85.6594 8.26027 86.2996 8.35876 86.8905 8.55573C87.4852 8.74891 88.0098 9.02542 88.4644 9.38527C88.9227 9.74133 89.292 10.1637 89.5723 10.6523C89.8526 11.141 90.0231 11.6769 90.0837 12.2603H86.8905ZM102.966 14.2375C102.966 15.533 102.714 16.6258 102.21 17.516C101.706 18.4023 101.026 19.0747 100.17 19.533C99.3143 19.9875 98.3597 20.2148 97.3067 20.2148C96.2461 20.2148 95.2878 19.9856 94.4317 19.5273C93.5794 19.0652 92.9014 18.391 92.3976 17.5046C91.8976 16.6144 91.6476 15.5254 91.6476 14.2375C91.6476 12.9421 91.8976 11.8512 92.3976 10.9648C92.9014 10.0747 93.5794 9.40232 94.4317 8.94777C95.2878 8.48944 96.2461 8.26027 97.3067 8.26027C98.3597 8.26027 99.3143 8.48944 100.17 8.94777C101.026 9.40232 101.706 10.0747 102.21 10.9648C102.714 11.8512 102.966 12.9421 102.966 14.2375ZM99.7158 14.2375C99.7158 13.5406 99.623 12.9535 99.4374 12.4762C99.2556 11.9951 98.9847 11.6315 98.6249 11.3853C98.2688 11.1353 97.8294 11.0103 97.3067 11.0103C96.784 11.0103 96.3427 11.1353 95.9828 11.3853C95.6268 11.6315 95.3559 11.9951 95.1703 12.4762C94.9885 12.9535 94.8976 13.5406 94.8976 14.2375C94.8976 14.9345 94.9885 15.5235 95.1703 16.0046C95.3559 16.4819 95.6268 16.8455 95.9828 17.0955C96.3427 17.3417 96.784 17.4648 97.3067 17.4648C97.8294 17.4648 98.2688 17.3417 98.6249 17.0955C98.9847 16.8455 99.2556 16.4819 99.4374 16.0046C99.623 15.5235 99.7158 14.9345 99.7158 14.2375ZM110.7 12.0557C110.67 11.6769 110.528 11.3815 110.274 11.1694C110.024 10.9572 109.643 10.8512 109.132 10.8512C108.806 10.8512 108.539 10.891 108.331 10.9705C108.126 11.0463 107.975 11.1504 107.876 11.283C107.778 11.4156 107.727 11.5671 107.723 11.7375C107.715 11.8777 107.74 12.0046 107.797 12.1182C107.857 12.2281 107.952 12.3285 108.081 12.4194C108.21 12.5065 108.374 12.586 108.575 12.658C108.776 12.73 109.015 12.7944 109.291 12.8512L110.246 13.0557C110.89 13.1921 111.441 13.372 111.899 13.5955C112.357 13.819 112.732 14.0822 113.024 14.3853C113.316 14.6845 113.53 15.0216 113.666 15.3966C113.806 15.7716 113.878 16.1807 113.882 16.6239C113.878 17.3891 113.687 18.0368 113.308 18.5671C112.929 19.0974 112.388 19.5008 111.683 19.7773C110.982 20.0538 110.14 20.1921 109.155 20.1921C108.143 20.1921 107.261 20.0425 106.507 19.7432C105.757 19.444 105.174 18.9838 104.757 18.3625C104.344 17.7375 104.136 16.9383 104.132 15.9648H107.132C107.151 16.3209 107.24 16.6201 107.399 16.8625C107.558 17.105 107.782 17.2887 108.069 17.4137C108.361 17.5387 108.708 17.6012 109.109 17.6012C109.446 17.6012 109.729 17.5595 109.956 17.4762C110.183 17.3928 110.355 17.2773 110.473 17.1296C110.59 16.9819 110.651 16.8133 110.655 16.6239C110.651 16.4459 110.592 16.2906 110.479 16.158C110.369 16.0216 110.187 15.9004 109.933 15.7944C109.679 15.6845 109.337 15.5822 108.905 15.4875L107.746 15.2375C106.715 15.0141 105.903 14.641 105.308 14.1182C104.717 13.5917 104.424 12.8739 104.427 11.9648C104.424 11.2262 104.621 10.5803 105.018 10.0273C105.42 9.4705 105.975 9.03679 106.683 8.72618C107.395 8.41557 108.212 8.26027 109.132 8.26027C110.071 8.26027 110.884 8.41747 111.569 8.73186C112.255 9.04626 112.783 9.48944 113.155 10.0614C113.53 10.6296 113.719 11.2944 113.723 12.0557H110.7ZM115.084 20.0557V8.41936H123.265V10.9648H118.243V12.9648H122.765V15.5103H118.243V20.0557H115.084ZM125.997 20.0557H122.588L126.429 8.41936H130.747L134.588 20.0557H131.179L128.633 11.6239H128.542L125.997 20.0557ZM125.361 15.4648H131.77V17.8285H125.361V15.4648ZM135.709 20.0557V8.41936H140.731C141.595 8.41936 142.351 8.57656 142.998 8.89095C143.646 9.20535 144.15 9.658 144.51 10.2489C144.87 10.8398 145.05 11.5481 145.05 12.3739C145.05 13.2072 144.864 13.9099 144.493 14.4819C144.125 15.0538 143.608 15.4856 142.942 15.7773C142.279 16.069 141.504 16.2148 140.618 16.2148H137.618V13.7603H139.981C140.353 13.7603 140.669 13.7148 140.93 13.6239C141.195 13.5292 141.398 13.3796 141.538 13.175C141.682 12.9705 141.754 12.7035 141.754 12.3739C141.754 12.0406 141.682 11.7697 141.538 11.5614C141.398 11.3493 141.195 11.194 140.93 11.0955C140.669 10.9932 140.353 10.9421 139.981 10.9421H138.868V20.0557H135.709ZM142.527 14.7148L145.436 20.0557H142.004L139.163 14.7148H142.527ZM146.396 20.0557V8.41936H154.783V10.9648H149.555V12.9648H154.351V15.5103H149.555V17.5103H154.76V20.0557H146.396Z" fill="url(#paint0_linear_6_1703)"/>
<defs>
<linearGradient id="paint0_linear_6_1703" x1="57.9431" y1="14.5557" x2="155.943" y2="14.5557" gradientUnits="userSpaceOnUse">
<stop offset="0.9999" stop-color="white"/>
<stop offset="1" stop-color="#E95328" stop-opacity="0.73"/>
</linearGradient>
</defs>
</svg>
