<svg width="333" height="51" viewBox="0 0 333 51" fill="none" xmlns="http://www.w3.org/2000/svg">
<path d="M71.8787 40.9501C72.6523 39.5895 72.6725 38.1959 71.9394 36.7693C72.0113 36.8353 72.0901 36.825 72.1755 36.7384L73.5451 36.4416C74.5031 36.5653 75.4657 36.5117 76.4327 36.2808C77.836 35.9406 78.7603 36.1633 80.0152 36.4849C80.2378 36.5405 80.2716 36.8188 80.0692 36.9178L71.8787 40.9501Z" fill="#210F2D"/>
<path d="M71.9394 36.7693C72.6725 38.1959 72.6523 39.5895 71.8787 40.9501L67.7093 42.9663L61.2392 45.0937C61.1718 45.1185 61.1313 45.1803 61.1448 45.2421C61.1583 45.3102 61.2257 45.3535 61.2932 45.3473C62.836 45.2442 64.0459 45.5225 64.9229 46.1822C63.4117 46.8295 62.195 47.0954 61.273 46.98C57.2474 47.2851 53.3861 47.1717 49.6889 46.6398L53.9326 45.2669C54.0607 45.2236 54.0675 45.0628 53.946 45.0071L53.1162 44.6237C53.7369 44.331 54.144 43.8177 54.3374 43.0838C58.8801 41.8304 61.9589 40.8759 63.5736 40.2203C66.4207 39.0659 69.2092 37.9155 71.9394 36.7693Z" fill="#3D1745"/>
<path d="M67.1633 45.508L64.9229 46.1822C64.0459 45.5225 62.836 45.2442 61.2932 45.3473C61.2257 45.3535 61.1583 45.3102 61.1448 45.2421C61.1313 45.1803 61.1718 45.1185 61.2392 45.0937L67.7093 42.9663C70.2056 42.8632 72.5832 42.2612 74.8411 41.1603C74.9423 41.1108 75.0705 41.1418 75.1312 41.2345L75.2122 41.3706C75.2392 41.4139 75.2257 41.4695 75.1852 41.5005C72.6574 43.1167 69.9835 44.4525 67.1633 45.508Z" fill="#210F2D"/>
<path d="M67.1633 45.508C68.2203 46.1471 69.3197 46.5511 70.4621 46.7202C70.7927 46.7696 70.8534 47.184 70.5498 47.3139C62.3931 50.7463 53.9934 51.878 45.1485 49.6021C45.0001 49.565 44.9461 49.3919 45.054 49.2867L46.4101 47.9385C48.4027 48.1034 50.3997 48.3446 52.4012 48.6621C55.0099 49.0703 57.9671 48.5096 61.273 46.98C62.195 47.0954 63.4117 46.8295 64.9229 46.1822L67.1633 45.508Z" fill="#050B29"/>
<path d="M49.6889 46.6398C53.3861 47.1717 57.2474 47.2851 61.273 46.98C57.9671 48.5096 55.0099 49.0703 52.4012 48.6621C50.3997 48.3446 48.4027 48.1034 46.4101 47.9385L43.4552 47.4994C43.3405 47.4808 43.2595 47.3881 43.2595 47.2829C43.2663 47.1778 43.354 47.0912 43.4687 47.085L49.6889 46.6398Z" fill="#210F2D"/>
<path d="M56.206 8.56797C51.3754 9.4874 46.9135 11.2046 42.8205 13.7196C41.867 14.301 40.9022 15.0204 39.9262 15.878C38.5454 17.0902 37.693 17.921 37.3692 18.3704C35.9209 20.3989 33.8227 24.089 31.0745 29.4406C30.8811 29.8075 30.4876 29.9621 29.8939 29.9044C29.9208 29.7354 29.8151 29.6055 29.5768 29.5148C29.4756 29.4777 29.3609 29.4839 29.2664 29.5334L24.6652 31.97C24.4695 32.0752 24.2334 31.9391 24.2401 31.735L24.2604 31.432L25.0565 30.7455C26.8241 29.187 28.6727 27.7357 30.6023 26.3916C31.1555 26.0082 31.7087 25.2578 32.2619 24.1405C32.2664 24.1322 32.2709 24.124 32.2754 24.1158L35.1428 19.7124C35.8759 19.2341 36.5056 18.6734 37.0319 18.0302C37.8595 17.016 38.4104 16.3934 38.6848 16.1625C39.6248 15.3791 40.34 14.6349 40.8303 13.9299C40.9652 13.7444 41.1406 13.5774 41.343 13.4475C44.8918 11.1902 47.2396 10.2316 51.7464 8.85246C51.8814 8.81123 52.0973 8.66692 52.3941 8.41955C52.5965 8.2505 52.8551 8.17629 53.17 8.1969C54.209 8.25875 55.221 8.38244 56.206 8.56797Z" fill="#C42E37"/>
<path d="M84.711 19.6011C84.0633 20.0876 83.2851 20.2814 82.3766 20.1824C82.2821 20.1701 82.1877 20.2257 82.1607 20.3061L82.1067 20.4731C82.073 20.5968 82.154 20.7205 82.2889 20.7452C83.4763 20.9596 84.3646 21.4585 84.9538 22.2419C85.0888 22.415 85.1225 22.6439 85.0415 22.848L84.3264 24.6786L82.5722 26.0577C81.9201 26.0494 81.2656 26.1855 80.609 26.4659C80.3391 26.5772 80.0557 26.3484 80.1367 26.0886L80.7709 24.122C80.8586 23.8498 80.7439 23.5592 80.4943 23.3984L76.0414 20.5226C75.812 20.3742 75.6164 20.1763 75.468 19.9536C73.9747 17.6819 72.2363 15.7255 70.2528 14.0845C69.0923 13.126 67.0953 11.9262 65.7864 10.4481C66.4746 10.6625 67.12 10.9511 67.7227 11.3139C70.8172 13.1734 73.7116 15.2658 76.4058 17.5911C78.5849 19.4774 80.9733 19.7866 84.711 19.6011Z" fill="#C42E37"/>
<path d="M86.8695 22.885C86.2758 23.755 85.4283 24.3528 84.3264 24.6786L85.0415 22.848C85.1225 22.6439 85.0888 22.415 84.9538 22.2419C84.3646 21.4585 83.4763 20.9596 82.2889 20.7452C82.154 20.7205 82.073 20.5968 82.1067 20.4731L82.1607 20.3061C82.1877 20.2257 82.2821 20.1701 82.3766 20.1824C83.2851 20.2814 84.0633 20.0876 84.711 19.6011C85.9389 19.3125 86.6581 20.4071 86.8695 22.885Z" fill="#A3343B"/>
<path d="M29.8939 29.9044L28.5579 31.1475L24.7595 34.6727C23.9544 35.7158 23.6463 36.9568 23.8352 38.3957L20.5901 37.4742C20.4461 37.5484 20.3382 37.5237 20.2662 37.4C20.3697 37.3753 20.4596 37.332 20.5361 37.2701C20.5991 37.2207 20.6418 37.1382 20.6643 37.0228C21.0961 34.7304 22.2948 32.8668 24.2604 31.432L24.2401 31.735C24.2334 31.9391 24.4695 32.0752 24.6652 31.97L29.2664 29.5334C29.3609 29.4839 29.4756 29.4777 29.5768 29.5148C29.8151 29.6055 29.9208 29.7354 29.8939 29.9044Z" fill="#6B1D43"/>
<path d="M29.8612 24.9137L25.3274 28.4574L23.6812 29.4346L20.8071 29.985C20.5305 30.0345 20.3753 29.7067 20.6114 29.5644L24.565 27.1649C24.9203 27.5442 25.2059 27.6143 25.4218 27.3751C26.9466 25.6641 28.4264 24.8436 29.8612 24.9137Z" fill="#210F2D"/>
<path d="M50.1439 4.48624C55.6042 3.71936 60.7669 4.32072 65.6065 6.28739L57.0936 5.6247C53.5538 5.49276 49.8709 5.90346 46.0658 6.83113C44.9216 6.91874 43.8124 7.27635 42.7354 7.90162C42.5578 8.01194 42.5447 8.24735 42.7184 8.3604C42.9478 8.50883 43.0212 8.6985 42.9223 8.92114C42.8755 9.03099 42.7867 9.12634 42.6674 9.17602C40.9672 9.88105 39.5933 10.8941 38.5723 12.2176L34.9191 15.3441C34.71 15.5234 34.8398 15.8367 35.123 15.8369H36.0575C36.4151 15.8369 36.5071 16.2801 36.1765 16.3976C35.207 16.7482 34.6425 17.3591 34.4943 18.2157C32.4546 20.1236 30.9129 22.3596 29.8612 24.9137C28.4264 24.8436 26.9466 25.6641 25.4218 27.3751C25.2059 27.6143 24.9203 27.5442 24.565 27.1649L29.1248 22.4637C29.2791 22.3037 29.362 22.0952 29.3627 21.886C29.3897 18.6577 31.9025 16.1757 34.3583 13.8998C34.5804 13.696 34.7812 13.4669 34.9361 13.2201C35.7772 11.8719 36.9971 10.6461 38.5893 9.53285C38.7219 9.44126 38.7572 9.26017 38.6743 9.12504L38.5893 8.97211C38.5426 8.89872 38.4488 8.8798 38.3684 8.92114L34.1205 11.1641C34.0741 11.1853 34.0105 11.1718 33.9845 11.1301L33.8996 10.9942L33.9166 10.9262C36.0822 9.22619 38.2428 7.97872 40.3905 7.18796C42.387 6.45476 45.0429 5.7983 48.3597 5.23388C48.4668 5.21542 48.5717 5.19784 48.6656 5.14892L49.5152 4.69014C49.7075 4.58821 49.9192 4.51689 50.1439 4.48624Z" fill="#3D1745"/>
<path d="M69.7016 8.08853C72.5053 9.50974 74.9868 11.3549 77.1441 13.6279V13.6619L77.1101 13.6789L72.6072 10.7733C72.5212 10.7187 72.4033 10.7256 72.3354 10.7903C72.2694 10.8628 72.2556 10.9713 72.3184 11.0451C72.8896 11.6759 73.3459 12.3991 73.6607 13.2031L70.4323 11.1131C70.2987 11.0274 70.1875 10.8968 70.1264 10.7563C69.7714 9.94069 69.6301 9.04814 69.7016 8.08853Z" fill="#3D1745"/>
<path d="M59.3299 10.4233C62.7033 11.718 65.1164 12.8312 66.5691 13.763C69.1554 15.4163 71.1277 17.8035 72.486 20.9246C72.9178 22.2151 73.2956 23.3716 73.6194 24.3941C74.0512 25.7588 73.5767 26.6762 72.1959 27.1462C71.8001 20.1 68.1479 15.5606 61.2392 13.528C57.704 12.4972 54.3261 12.5323 51.1057 13.6331C42.8927 16.4408 39.0044 21.912 39.4406 30.0467C39.6385 33.7574 41.7143 35.9199 45.6678 36.5342L44.2038 37.0228C44.0014 37.097 43.772 37.097 43.5696 37.0228C41.5456 36.2992 39.2382 35.7797 38.7862 33.8192C37.9991 30.36 38.0868 26.9771 39.0493 23.6705C39.2023 23.1386 39.7847 22.0605 40.7967 20.436C41.3455 19.5578 42.1551 18.626 43.2255 17.6406C45.0696 15.9378 46.8148 14.0536 48.461 11.988C51.524 10.5903 55.147 10.0688 59.3299 10.4233Z" fill="#FEC53B"/>
<path d="M48.461 11.988C46.8148 14.0536 45.0696 15.9378 43.2255 17.6406C42.1551 18.626 41.3455 19.5578 40.7967 20.436C39.7847 22.0605 39.2023 23.1386 39.0493 23.6705C38.0868 26.9771 37.9991 30.36 38.7862 33.8192C39.2382 35.7797 41.5456 36.2992 43.5696 37.0228C43.772 37.097 44.0014 37.097 44.2038 37.0228L45.6678 36.5342C55.0368 36.291 63.3866 33.6399 70.718 28.581L72.1959 27.1462C73.5767 26.6762 74.0512 25.7588 73.6194 24.3941C73.2956 23.3716 72.9178 22.2151 72.486 20.9246C74.0557 21.91 75.2518 23.2109 76.0749 24.8271C76.1828 25.0373 76.1626 25.2847 76.0277 25.4826L71.9594 31.5001L66.6227 34.2955C60.7396 36.089 56.9255 37.1569 55.1803 37.4991C49.4411 38.6246 44.1202 38.0886 39.2176 35.8911C36.4155 34.6336 35.1089 32.3165 35.2978 28.9397C36.1524 25.4187 36.7708 23.2212 37.1531 22.3471C39.2491 17.5232 43.0186 14.0701 48.461 11.988Z" fill="#FFAE0E"/>
<path d="M65.5975 6.29211L69.6995 8.0856C69.6275 9.04626 69.7692 9.93476 70.1245 10.7511C70.1852 10.8934 70.2932 11.0232 70.4281 11.1098L73.653 13.2002C75.3802 15.3936 77.3615 16.5975 79.5969 16.8119C83.8428 17.2201 87.9268 16.7583 91.8489 15.4266C91.9838 15.3833 92.1323 15.4389 92.1997 15.5565C92.2605 15.674 92.2065 15.8162 92.085 15.8842L89.5685 17.2139C89.4201 17.2881 89.3661 17.4551 89.4336 17.5973C89.5011 17.7396 89.6697 17.8076 89.8316 17.7643C90.9606 17.4386 91.9928 16.8243 92.9284 15.9213C93.0161 15.8348 93.151 15.8162 93.2657 15.8719C93.4231 15.9543 93.4704 16.1069 93.4074 16.3295C91.6218 18.7167 89.4426 20.9019 86.8698 22.8851C86.6584 20.4071 85.9388 19.3125 84.7109 19.6011C80.9732 19.7866 78.5849 19.4774 76.4057 17.5911C73.7115 15.2658 70.8172 13.1734 67.7227 11.3139C67.12 10.9511 66.4745 10.6625 65.7864 10.4481C65.5705 10.246 65.4625 10.1986 65.4625 10.3058C65.566 9.85642 65.5682 9.4833 65.4693 9.18644C65.4153 9.01946 65.2939 8.87103 65.1387 8.7659C62.8403 7.2775 60.1574 6.23232 57.0899 5.63037L65.5975 6.29211Z" fill="#6B1D43"/>
<path d="M57.0899 5.63037C60.1574 6.23232 62.8403 7.2775 65.1387 8.7659C65.2939 8.87103 65.4153 9.01946 65.4693 9.18644C65.5682 9.4833 65.566 9.85642 65.4625 10.3058C62.5075 9.19262 59.4221 8.61328 56.2062 8.56793C55.2212 8.3824 54.2092 8.2587 53.1702 8.19686C52.8553 8.17624 52.5967 8.25046 52.3943 8.4195C52.0974 8.66688 51.8815 8.81119 51.7466 8.85242C47.2398 10.2316 44.892 11.1901 41.3432 13.4475C41.1408 13.5774 40.9654 13.7443 40.8304 13.9299C40.3402 14.6349 39.625 15.3791 38.685 16.1625C38.4106 16.3934 37.8597 17.0159 37.0321 18.0302C36.5058 18.6734 35.8761 19.2341 35.143 19.7124C35.2689 19.263 35.0553 18.7641 34.502 18.2157C34.6505 17.3581 35.2104 16.7541 36.182 16.4037C36.5126 16.2862 36.4181 15.8347 36.0605 15.8347H35.1227C34.8394 15.8347 34.7044 15.5193 34.9136 15.3399L38.5771 12.2106L45.6004 8.55556C45.7893 8.45661 45.9107 8.28344 45.931 8.08554L46.0726 6.8239C49.8778 5.89623 53.5501 5.49843 57.0899 5.63037Z" fill="#A3343B"/>
<path d="M46.0726 6.8239L45.931 8.08554C45.9107 8.28344 45.7893 8.45661 45.6004 8.55556L38.5771 12.2106C39.5981 10.8871 40.9589 9.87298 42.6591 9.16795C42.7805 9.11847 42.875 9.03189 42.9222 8.92057C43.0212 8.69793 42.956 8.5124 42.7266 8.36397C42.5444 8.25265 42.5512 8.00527 42.7333 7.89395C43.8128 7.26726 44.9257 6.91049 46.0726 6.8239Z" fill="#6B1D43"/>
<path d="M93.4074 16.3295L94.4464 16.583C94.6623 16.6325 94.777 16.8551 94.6758 17.0406L93.5018 19.1805C93.3062 19.5454 93.6233 19.9721 94.0685 19.9288C94.154 19.9205 94.253 19.9041 94.3654 19.8793C92.8811 21.2605 91.4283 22.3552 90.007 23.1633C88.7387 23.8848 87.8166 24.4641 87.2409 24.9011L77.0601 30.5414C76.8037 30.6836 76.5136 30.3991 76.6958 30.1765C76.9971 29.8095 77.4267 29.4776 77.9844 29.1808C79.6531 28.2943 81.1823 27.2533 82.5722 26.0576L84.3263 24.6785C85.4283 24.3528 86.2761 23.755 86.8698 22.8851C89.4426 20.9019 91.6218 18.7167 93.4074 16.3295Z" fill="#3D1745"/>
<path d="M35.143 19.7124L32.2753 24.1157L32.2618 24.1405C31.7086 25.2578 31.1554 26.0082 30.6021 26.3916C28.6726 27.7357 26.824 29.187 25.0564 30.7455L25.3262 28.4572L29.86 24.9135C30.9125 22.3573 32.46 20.1247 34.502 18.2157C35.0553 18.7641 35.2689 19.263 35.143 19.7124Z" fill="#6B1D43"/>
<path d="M25.3262 28.4572L25.0564 30.7455L24.2606 31.4319C22.2951 32.8667 21.0964 34.7303 20.6646 37.0227C20.6421 37.1382 20.5994 37.2206 20.5364 37.2701C20.46 37.3319 20.37 37.3752 20.2666 37.4L18.1953 36.7382C19.1129 35.0519 20.3025 33.5821 21.7643 32.3287C21.8588 32.2483 21.8723 32.1061 21.7981 32.0071C21.7171 31.9143 21.5687 31.8834 21.454 31.9453L18.6204 33.4419C18.5326 33.4914 18.418 33.4605 18.364 33.3801L18.256 33.2069C18.1751 33.0708 18.2156 32.9039 18.3572 32.8111L23.6804 29.4344L25.3262 28.4572Z" fill="#3D1745"/>
<path d="M61.2391 13.5279L56.1656 14.6164C55.9497 14.6659 55.9632 14.9442 56.179 14.9813C63.1889 16.0883 67.5203 21.1905 67.5203 27.7151C67.5203 27.9192 67.6552 28.0986 67.8576 28.1728C68.4648 28.4037 69.135 28.3933 69.8681 28.1418C70.1785 28.0346 70.4618 28.181 70.7182 28.5809C63.3868 33.6398 55.0366 36.2909 45.6677 36.5342C41.7141 35.9199 39.6384 33.7574 39.4405 30.0467C39.0042 21.912 42.8925 16.4408 51.1055 13.6331C54.326 12.5322 57.7038 12.4972 61.2391 13.5279Z" fill="#030914"/>
<path d="M72.1955 27.1462L70.7182 28.5809C70.4618 28.181 70.1785 28.0346 69.8681 28.1418C69.135 28.3933 68.4648 28.4037 67.8576 28.1728C67.6552 28.0986 67.5203 27.9192 67.5203 27.7151C67.5203 21.1905 63.1889 16.0883 56.179 14.9813C55.9632 14.9442 55.9497 14.6659 56.1656 14.6164L61.2391 13.5279C68.1477 15.5606 71.7997 20.1001 72.1955 27.1462Z" fill="#210F2D"/>
<path d="M71.9588 31.4999L76.0271 25.4824C76.162 25.2845 76.1823 25.0371 76.0743 24.8268C75.2512 23.2106 74.0548 21.9098 72.4851 20.9244C71.1267 17.8033 69.1545 15.4161 66.5682 13.7628C65.1154 12.831 62.7024 11.7178 59.329 10.4232C63.9842 10.5098 67.958 12.5094 71.2504 16.4221C74.3494 20.104 75.9596 22.0273 76.0811 22.1922C76.7153 23.0498 77.1583 23.8311 77.4102 24.5362C77.5923 25.0495 77.5249 25.6123 77.2213 26.0761C75.5661 28.62 73.8119 30.4279 71.9588 31.4999Z" fill="#FF8712"/>
<path d="M35.2976 28.9395C35.1087 32.3162 36.4153 34.6333 39.2175 35.8908C44.1201 38.0884 49.441 38.6244 55.1802 37.4988C56.9253 37.1566 60.7395 36.0888 66.6226 34.2953C60.9329 37.8163 54.6067 39.6201 47.6441 39.7067C47.4484 39.7067 47.2595 39.651 47.1044 39.5521L46.1801 38.9584C46.0316 38.8594 45.8495 38.8037 45.6673 38.7914C41.9769 38.5997 37.2474 38.1296 35.2571 35.1858C34.0517 33.4006 34.0652 31.3185 35.2976 28.9395Z" fill="#FF8712"/>
<path d="M24.1193 7.05298C21.4386 7.67142 19.4101 7.41786 18.0337 6.29229C16.6169 5.13373 16.1784 3.43712 16.7181 1.20246C18.985 -0.665252 22.4528 -0.312737 24.1193 1.95078C25.2325 3.46598 25.2325 5.48212 24.1193 7.05298Z" fill="#FFFFFA"/>
<path d="M16.7181 1.20246C16.1784 3.43712 16.6169 5.13373 18.0337 6.29229C19.4101 7.41786 21.4386 7.67142 24.1193 7.05298C22.9656 8.68568 20.8533 9.50199 18.8226 9.10618C17.1989 8.12491 15.9282 6.76226 15.0107 5.01824C14.9162 3.58344 15.5442 2.17342 16.7181 1.20246Z" fill="#7C8B9E"/>
<path d="M18.8226 9.10618C18.1142 8.97012 17.46 8.6857 16.8933 8.28371C15.7868 7.49828 15.0984 6.31079 15.0107 5.01824C15.9282 6.76226 17.1989 8.12491 18.8226 9.10618Z" fill="#FFFFFA"/>
<path d="M28.5584 31.1477C28.437 31.8445 28.0681 32.4712 27.4519 33.0278C27.2765 33.1886 27.1686 33.3988 27.1483 33.6215C26.9729 35.4273 27.5464 36.2932 29.2398 37.5548C29.883 38.0413 30.488 38.5959 31.0547 39.2184C27.4115 38.9793 25.3132 37.4641 24.76 34.6728L28.5584 31.1477Z" fill="#C42E37"/>
<path d="M24.76 34.6728C25.3132 37.4641 27.4115 38.9793 31.0547 39.2184C31.5764 39.2514 31.9522 39.4039 32.1815 39.676C32.2962 39.812 32.2085 40.0099 32.0196 40.0347C31.7902 40.0594 31.5226 40.0285 31.2168 39.9419L25.7722 38.9091L23.8359 38.3958C23.647 36.9569 23.9549 35.7159 24.76 34.6728Z" fill="#812940"/>
<path d="M82.6263 32.9845L91.3363 27.6164L94.1699 25.5941C94.3318 25.4765 94.3858 25.2725 94.2981 25.0993L93.421 23.3429C96.3625 19.9785 97.7456 18.3149 98.427 14.1095C98.4473 13.9858 98.3596 13.8683 98.2246 13.8497C98.0964 13.825 97.9548 13.9054 97.9345 14.0229C97.8626 14.4393 97.6354 14.7712 97.2531 15.0186C97.7749 10.0298 95.6744 6.44072 90.9517 4.25142C88.3385 3.03926 86.283 2.56305 84.7852 2.8228L84.7515 2.79806C84.7605 2.73622 84.729 2.69705 84.657 2.68056L84.6368 2.65582L84.6638 2.63108C86.22 2.56099 87.1353 2.5445 87.4097 2.58161C92.1458 3.21242 98.906 5.59345 101.099 9.56388C103.602 14.1033 101.031 19.5456 97.4488 23.2007C93.3243 27.4102 88.3834 30.6715 82.6263 32.9845Z" fill="#062772"/>
<path d="M65.463 10.3059C65.463 10.1987 65.5709 10.2461 65.7868 10.4481C67.0957 11.9262 69.0927 13.126 70.2531 14.0846C72.2366 15.7256 73.9751 17.6819 75.4683 19.9537C75.6167 20.1763 75.8124 20.3742 76.0418 20.5227L80.4946 23.3984C80.7442 23.5592 80.8589 23.8499 80.7712 24.122L80.137 26.0887C80.0561 26.3484 80.3394 26.5773 80.6093 26.4659C81.266 26.1856 81.9204 26.0495 82.5726 26.0578C81.1828 27.2534 79.6535 28.2945 77.9848 29.1809C77.4271 29.4778 76.9976 29.8097 76.6962 30.1766C76.5141 30.3993 76.8042 30.6838 77.0605 30.5415L87.2413 24.9013L86.3373 28.1605L80.4406 31.3393C79.5906 31.5784 78.3424 32.1083 76.6962 32.9287C74.2764 34.1326 70.3633 35.5654 64.9569 37.2269C63.5581 37.6557 61.5161 38.169 58.8309 38.7669C56.7575 39.2245 54.7177 39.7543 52.7117 40.3563C46.2708 42.0302 39.7153 42.7641 33.045 42.558C32.3389 42.6775 31.6395 42.5683 30.9468 42.2302L31.2168 39.9419C31.5226 40.0285 31.7902 40.0594 32.0196 40.0347C32.2085 40.0099 32.2962 39.812 32.1815 39.676C31.9522 39.4039 31.5764 39.2514 31.0547 39.2184C30.488 38.5959 29.883 38.0413 29.2398 37.5548C27.5464 36.2932 26.9729 35.4273 27.1483 33.6215C27.1686 33.3988 27.2765 33.1886 27.4519 33.0278C28.0681 32.4712 28.437 31.8445 28.5584 31.1477L29.8943 29.9045C30.488 29.9622 30.8816 29.8076 31.075 29.4407C33.8232 24.089 35.9214 20.399 37.3697 18.3705C37.6935 17.9211 38.5459 17.0903 39.9267 15.8781C40.9027 15.0205 41.8675 14.3011 42.821 13.7197C46.914 11.2047 51.3758 9.48749 56.2065 8.56807C59.4224 8.61342 62.5079 9.1927 65.463 10.3059ZM48.4613 11.9881C43.0189 14.0702 39.2498 17.5232 37.1538 22.3471C36.7715 23.2212 36.153 25.4187 35.2984 28.9397C34.066 31.3187 34.0525 33.4008 35.258 35.1861C37.2482 38.1299 41.9777 38.5999 45.6681 38.7916C45.8503 38.804 46.0324 38.8596 46.1809 38.9586L47.1052 39.5523C47.2603 39.6513 47.4493 39.7069 47.6449 39.7069C54.6075 39.6203 60.9337 37.8165 66.6234 34.2955L71.96 31.5001C73.8131 30.4281 75.5673 28.6202 77.2225 26.0763C77.5261 25.6125 77.5935 25.0497 77.4114 24.5364C77.1595 23.8314 76.7165 23.0501 76.0823 22.1925C75.9608 22.0276 74.3506 20.1042 71.2516 16.4224C67.9592 12.5096 63.9854 10.51 59.3302 10.4234C55.1472 10.0688 51.5243 10.5904 48.4613 11.9881ZM32.7954 29.9354L29.5165 32.9411C28.9498 33.4606 28.9565 34.2955 29.5233 34.8088C30.1125 35.3324 30.8906 35.7674 31.8576 36.1137C32.0128 36.1694 32.1545 36.0086 32.06 35.8849C31.0075 34.4687 31.7699 33.0895 32.2219 31.6671C32.2827 31.4877 32.3771 31.3208 32.5053 31.1785C32.7662 30.8817 32.9528 30.5127 33.0653 30.0715C33.099 29.9293 32.9101 29.8303 32.7954 29.9354Z" fill="#E95328"/>
<path d="M93.421 23.3429L90.4391 25.4579L86.3373 28.1605L87.2413 24.9013C87.817 24.4642 88.739 23.8849 90.0073 23.1634C91.4287 22.3553 92.8814 21.2607 94.3657 19.8795C95.9085 18.2839 96.8708 16.6637 97.2531 15.0186C97.6354 14.7712 97.8626 14.4393 97.9345 14.0229C97.9548 13.9054 98.0964 13.825 98.2246 13.8497C98.3596 13.8683 98.4473 13.9858 98.427 14.1095C97.7456 18.3149 96.3625 19.9785 93.421 23.3429Z" fill="#A3343B"/>
<path d="M93.421 23.3429L94.2981 25.0993C94.3858 25.2725 94.3318 25.4765 94.1699 25.5941L91.3363 27.6164L90.4391 25.4579L93.421 23.3429Z" fill="#3D1745"/>
<path d="M90.4391 25.4579L91.3363 27.6164L82.6263 32.9845L73.5454 36.4416L72.1758 36.7385L80.4406 31.3393L86.3373 28.1605L90.4391 25.4579Z" fill="#6B1D43"/>
<path d="M80.4406 31.3393L72.1758 36.7385C72.0903 36.8251 72.0114 36.8353 71.9394 36.7693C69.2093 37.9155 66.4206 39.0658 63.5735 40.2202C61.9588 40.8758 58.8801 41.8303 54.3373 43.0837C52.9295 43.3723 51.5419 43.5743 50.1746 43.6897C47.9684 43.8815 46.194 44.636 44.0148 44.2711C43.8867 44.2525 43.7989 44.1474 43.7989 44.0299C43.7989 43.9124 43.8934 43.8134 44.0216 43.7949L52.7181 42.558C53.0014 42.5147 53.1499 42.2302 53.0014 42.0076C52.7091 41.5581 52.6127 41.0077 52.7117 40.3563C54.7177 39.7543 56.7575 39.2245 58.8309 38.7669C61.5161 38.169 63.5581 37.6557 64.9569 37.2269C70.3633 35.5654 74.2764 34.1326 76.6962 32.9287C78.3424 32.1083 79.5906 31.5784 80.4406 31.3393Z" fill="#C42E37"/>
<path d="M49.9925 1.89514L50.0398 1.9508V2.12396C50.0398 2.16725 49.9993 2.20436 49.9521 2.19818C42.1124 1.71166 34.3334 1.9776 26.6152 2.99597C26.3858 3.0269 26.1834 2.8661 26.1834 2.65583V2.59398C26.1834 2.33424 26.3926 2.12396 26.6759 2.09304C33.634 1.33441 38.8155 1.04992 42.2203 1.23958C44.6222 1.37152 47.2129 1.59004 49.9925 1.89514Z" fill="#4187D2"/>
<path d="M17.1696 36.2932L15.962 39.7627C8.87794 37.425 1.58476 32.4465 0.215176 25.3034C-1.3703 17.0718 6.07806 10.2566 13.6074 6.8489C13.8233 6.74995 14.0527 6.96022 13.9447 7.15813L13.6276 7.73947C13.5534 7.86316 13.4522 7.97448 13.324 8.05488C6.91465 12.0995 1.45657 17.9748 3.76394 25.5198C5.12003 29.9603 10.1328 33.6772 14.6801 35.3779C15.5842 35.7119 16.414 36.017 17.1696 36.2932Z" fill="#4187D2"/>
<path d="M18.1954 36.7384L20.2666 37.4001C20.3386 37.5238 20.4465 37.5486 20.5904 37.4744C19.5245 38.6453 19.0162 39.7399 19.0657 40.7583L15.962 39.7627L17.1696 36.2932L18.1954 36.7384Z" fill="#7C8B9E"/>
<path d="M23.8359 38.3958L25.7722 38.9091C24.4363 40.2078 24.1211 41.2119 24.8272 41.9211L19.0657 40.7583C19.0162 39.7399 19.5245 38.6453 20.5904 37.4744L23.8359 38.3958Z" fill="#AD6990"/>
<path d="M31.2168 39.9419L30.9468 42.2302L24.8272 41.9211C24.1211 41.2119 24.4363 40.2078 25.7722 38.9091L31.2168 39.9419Z" fill="#CE5A62"/>
<path d="M52.7117 40.3563C52.6127 41.0077 52.7091 41.5581 53.0014 42.0076C53.1499 42.2302 53.0014 42.5147 52.7181 42.558L44.0216 43.7949C43.8934 43.8134 43.7989 43.9124 43.7989 44.0299C43.7989 44.1474 43.8867 44.2525 44.0148 44.2711C46.194 44.636 47.9684 43.8815 50.1746 43.6897C51.5419 43.5743 52.9295 43.3723 54.3373 43.0837C54.1439 43.8175 53.7371 44.331 53.1164 44.6237C51.8615 44.7845 50.9237 45.0257 49.5744 44.9144C48.5354 44.8278 47.2333 44.9329 45.668 45.2298C44.4761 45.4565 41.4221 45.5926 36.506 45.638C36.1957 45.6421 35.7144 45.5493 35.0622 45.3597C34.9273 45.3164 34.7924 45.2978 34.6507 45.2916L28.8148 45.1556C27.8477 44.5495 27.3687 43.9517 27.3777 43.3621L30.3868 43.325C30.6161 43.3188 30.8455 43.3683 31.0547 43.4548C32.0892 43.9084 33.2833 44.1599 34.6372 44.2093C34.7181 44.2093 34.7924 44.1599 34.8058 44.0857C34.8193 44.0114 34.7721 43.9372 34.6912 43.9187C33.6657 43.6424 33.117 43.1888 33.045 42.558C39.7153 42.7641 46.2708 42.0302 52.7117 40.3563Z" fill="#812940"/>
<path d="M27.3777 43.3621C27.3687 43.9517 27.8477 44.5495 28.8148 45.1556C24.0876 44.8299 19.5649 43.7887 15.247 42.0323C15.166 42.0014 15.1323 41.9148 15.166 41.8406C15.1998 41.7664 15.2875 41.7231 15.3752 41.7478C18.1593 42.5147 19.9922 42.9229 20.8737 42.9723C23.0552 43.1002 25.2233 43.2301 27.3777 43.3621Z" fill="#3D1745"/>
<path d="M33.0653 30.0715C32.9528 30.5127 32.7662 30.8817 32.5053 31.1785C32.3771 31.3208 32.2827 31.4877 32.2219 31.6671C31.7699 33.0895 31.0075 34.4687 32.06 35.8849C32.1545 36.0086 32.0128 36.1694 31.8576 36.1137C30.8906 35.7674 30.1125 35.3324 29.5233 34.8088C28.9565 34.2955 28.9498 33.4606 29.5165 32.9411L32.7954 29.9354C32.9101 29.8303 33.099 29.9293 33.0653 30.0715Z" fill="#812940"/>
<path d="M116.079 38.3936V12.2117H134.334V17.351H122.407V22.7203H133.401V27.8723H122.407V33.2544H134.334V38.3936H116.079ZM138.298 38.3936V12.2117H149.113C151.073 12.2117 152.765 12.5654 154.188 13.2728C155.62 13.9717 156.724 14.9774 157.499 16.2899C158.275 17.5939 158.663 19.1407 158.663 20.9305C158.663 22.7458 158.266 24.2885 157.474 25.5583C156.681 26.8197 155.556 27.7828 154.099 28.4475C152.641 29.1038 150.915 29.4319 148.921 29.4319H142.082V24.4461H147.745C148.7 24.4461 149.496 24.3225 150.136 24.0754C150.783 23.8197 151.273 23.4362 151.606 22.9248C151.938 22.4049 152.104 21.7402 152.104 20.9305C152.104 20.1208 151.938 19.4518 151.606 18.9234C151.273 18.3865 150.783 17.9859 150.136 17.7217C149.488 17.449 148.691 17.3126 147.745 17.3126H144.626V38.3936H138.298ZM153.038 26.4277L159.557 38.3936H152.654L146.262 26.4277H153.038ZM179.315 20.7643C179.17 20.2274 178.957 19.7544 178.676 19.3453C178.395 18.9277 178.05 18.574 177.641 18.2842C177.231 17.9944 176.763 17.7771 176.234 17.6322C175.706 17.4788 175.126 17.4021 174.496 17.4021C173.226 17.4021 172.126 17.7089 171.197 18.3225C170.277 18.9362 169.565 19.8311 169.062 21.0072C168.56 22.1748 168.308 23.5939 168.308 25.2643C168.308 26.9433 168.551 28.3751 169.037 29.5598C169.523 30.7444 170.226 31.6478 171.146 32.27C172.067 32.8921 173.183 33.2032 174.496 33.2032C175.655 33.2032 176.635 33.0157 177.436 32.6407C178.246 32.2572 178.859 31.716 179.277 31.0171C179.695 30.3183 179.903 29.4958 179.903 28.5498L181.079 28.6904H174.713V24.0754H186.001V27.5399C186.001 29.8836 185.503 31.8907 184.506 33.5612C183.517 35.2316 182.153 36.5143 180.415 37.4092C178.685 38.3041 176.695 38.7515 174.445 38.7515C171.947 38.7515 169.753 38.2103 167.861 37.1279C165.969 36.0456 164.494 34.5029 163.437 32.5001C162.381 30.4887 161.852 28.1024 161.852 25.341C161.852 23.1933 162.172 21.2885 162.811 19.6265C163.45 17.9561 164.341 16.5413 165.483 15.3822C166.633 14.2231 167.963 13.3453 169.472 12.7487C170.989 12.1521 172.621 11.8538 174.368 11.8538C175.885 11.8538 177.295 12.0711 178.599 12.5058C179.912 12.9404 181.071 13.5541 182.077 14.3467C183.091 15.1393 183.913 16.0811 184.544 17.172C185.175 18.2629 185.567 19.4603 185.72 20.7643H179.315ZM214.443 25.3027C214.443 28.1833 213.889 30.6251 212.781 32.6279C211.673 34.6308 210.173 36.1521 208.281 37.1919C206.397 38.2316 204.284 38.7515 201.94 38.7515C199.588 38.7515 197.47 38.2274 195.586 37.1791C193.703 36.1308 192.207 34.6095 191.099 32.6152C190 30.6123 189.45 28.1748 189.45 25.3027C189.45 22.422 190 19.9802 191.099 17.9774C192.207 15.9745 193.703 14.4532 195.586 13.4135C197.47 12.3737 199.588 11.8538 201.94 11.8538C204.284 11.8538 206.397 12.3737 208.281 13.4135C210.173 14.4532 211.673 15.9745 212.781 17.9774C213.889 19.9802 214.443 22.422 214.443 25.3027ZM207.974 25.3027C207.974 23.5981 207.731 22.1578 207.245 20.9816C206.768 19.8055 206.078 18.9149 205.174 18.3098C204.279 17.7046 203.201 17.4021 201.94 17.4021C200.687 17.4021 199.609 17.7046 198.706 18.3098C197.802 18.9149 197.108 19.8055 196.622 20.9816C196.144 22.1578 195.906 23.5981 195.906 25.3027C195.906 27.0072 196.144 28.4475 196.622 29.6237C197.108 30.7998 197.802 31.6904 198.706 32.2956C199.609 32.9007 200.687 33.2032 201.94 33.2032C203.201 33.2032 204.279 32.9007 205.174 32.2956C206.078 31.6904 206.768 30.7998 207.245 29.6237C207.731 28.4475 207.974 27.0072 207.974 25.3027ZM232.289 20.0612C232.204 19.1237 231.825 18.395 231.152 17.8751C230.487 17.3467 229.537 17.0825 228.301 17.0825C227.483 17.0825 226.801 17.189 226.255 17.4021C225.71 17.6152 225.301 17.9092 225.028 18.2842C224.755 18.6507 224.615 19.0725 224.606 19.5498C224.589 19.9419 224.666 20.287 224.836 20.5853C225.015 20.8836 225.271 21.1478 225.603 21.3779C225.944 21.5995 226.353 21.7956 226.831 21.966C227.308 22.1365 227.845 22.2856 228.441 22.4135L230.691 22.9248C231.987 23.2061 233.129 23.5811 234.117 24.0498C235.115 24.5186 235.95 25.0768 236.623 25.7245C237.305 26.3723 237.821 27.118 238.17 27.9617C238.519 28.8055 238.698 29.7515 238.707 30.7998C238.698 32.4532 238.281 33.8723 237.454 35.0569C236.627 36.2416 235.438 37.1492 233.887 37.7799C232.345 38.4106 230.483 38.726 228.301 38.726C226.11 38.726 224.201 38.3978 222.573 37.7416C220.946 37.0853 219.68 36.0882 218.777 34.7501C217.873 33.412 217.409 31.7203 217.383 29.6748H223.443C223.494 30.5186 223.72 31.2217 224.12 31.7842C224.521 32.3467 225.071 32.7728 225.769 33.0626C226.477 33.3524 227.295 33.4973 228.224 33.4973C229.076 33.4973 229.801 33.3822 230.397 33.1521C231.002 32.922 231.467 32.6024 231.791 32.1933C232.115 31.7842 232.281 31.3154 232.289 30.787C232.281 30.2927 232.127 29.8708 231.829 29.5214C231.531 29.1635 231.071 28.8566 230.448 28.601C229.835 28.3367 229.051 28.0939 228.096 27.8723L225.36 27.2331C223.093 26.7132 221.308 25.8737 220.004 24.7146C218.7 23.547 218.052 21.9703 218.061 19.9845C218.052 18.3652 218.487 16.9461 219.365 15.7274C220.242 14.5086 221.457 13.5583 223.008 12.8765C224.559 12.1947 226.328 11.8538 228.313 11.8538C230.342 11.8538 232.102 12.199 233.593 12.8893C235.093 13.5711 236.257 14.5299 237.083 15.7657C237.91 17.0015 238.332 18.4333 238.349 20.0612H232.289ZM241.903 38.3936V12.2117H259.775V17.351H248.231V22.7203H258.637V27.8723H248.231V38.3936H241.903ZM265.355 38.3936H258.554L267.388 12.2117H275.813L284.647 38.3936H277.845L271.696 18.8083H271.492L265.355 38.3936ZM264.448 28.0896H278.664V32.8964H264.448V28.0896ZM287.465 38.3936V12.2117H298.281C300.241 12.2117 301.933 12.5654 303.356 13.2728C304.788 13.9717 305.892 14.9774 306.667 16.2899C307.443 17.5939 307.831 19.1407 307.831 20.9305C307.831 22.7458 307.434 24.2885 306.642 25.5583C305.849 26.8197 304.724 27.7828 303.267 28.4475C301.809 29.1038 300.083 29.4319 298.089 29.4319H291.25V24.4461H296.913C297.867 24.4461 298.664 24.3225 299.304 24.0754C299.951 23.8197 300.441 23.4362 300.774 22.9248C301.106 22.4049 301.272 21.7402 301.272 20.9305C301.272 20.1208 301.106 19.4518 300.774 18.9234C300.441 18.3865 299.951 17.9859 299.304 17.7217C298.656 17.449 297.859 17.3126 296.913 17.3126H293.794V38.3936H287.465ZM302.206 26.4277L308.725 38.3936H301.822L295.43 26.4277H302.206ZM311.301 38.3936V12.2117H329.557V17.351H317.63V22.7203H328.624V27.8723H317.63V33.2544H329.557V38.3936H311.301Z" fill="url(#paint0_linear_6_1703)"/>
<defs>
<linearGradient id="paint0_linear_6_1703" x1="114.097" y1="25.3936" x2="332.097" y2="25.3936" gradientUnits="userSpaceOnUse">
<stop offset="0.9999" stop-color="white"/>
<stop offset="1" stop-color="#E95328" stop-opacity="0.73"/>
</linearGradient>
</defs>
</svg>
